{
	"scenes": [
		{
			"nodes": [
				0,
				1,
				2,
				3,
				4,
				5,
				6,
				7,
				8,
				9,
				10,
				11,
				12,
				13,
				14,
				15,
				16,
				17,
				18,
				19,
				20,
				21,
				22,
				23,
				24
			]
		}
	],
	"nodes": [
		{
			"mesh": 0,
			"translation": [
				0,
				0,
				0
			],
			"rotation": [
				0.5329644198850143,
				0,
				0,
				0.8461376525936133
			],
			"scale": [
				1,
				1,
				1
			]
		},
		{
			"mesh": 0,
			"translation": [
				0,
				1.3,
				0
			],
			"rotation": [
				0.9765383409547154,
				0,
				0,
				0.21534360600076358
			],
			"scale": [
				1,
				1,
				1
			]
		},
		{
			"mesh": 0,
			"translation": [
				0,
				2.6,
				0
			],
			"rotation": [
				0.9914586536141281,
				0,
				0,
				0.1304213869488446
			],
			"scale": [
				1,
				1,
				1
			]
		},
		{
			"mesh": 0,
			"translation": [
				0,
				3.9000000000000004,
				0
			],
			"rotation": [
				0.9820317910737231,
				0,
				0,
				0.1887155566468633
			],
			"scale": [
				1,
				1,
				1
			]
		},
		{
			"mesh": 0,
			"translation": [
				0,
				5.2,
				0
			],
			"rotation": [
				0.8767918837418511,
				0,
				0,
				0.4808700371248101
			],
			"scale": [
				1,
				1,
				1
			]
		},
		{
			"mesh": 0,
			"translation": [
				1.3,
				0,
				0
			],
			"rotation": [
				0.9650239797271044,
				0,
				0,
				0.2621616267718469
			],
			"scale": [
				1,
				1,
				1
			]
		},
		{
			"mesh": 0,
			"translation": [
				1.3,
				1.3,
				0
			],
			"rotation": [
				0.9203995222921407,
				0,
				0,
				0.390979180218588
			],
			"scale": [
				1,
				1,
				1
			]
		},
		{
			"mesh": 0,
			"translation": [
				1.3,
				2.6,
				0
			],
			"rotation": [
				0.9819922363863345,
				0,
				0,
				0.18892127375434806
			],
			"scale": [
				1,
				1,
				1
			]
		},
		{
			"mesh": 0,
			"translation": [
				1.3,
				3.9000000000000004,
				0
			],
			"rotation": [
				0.60165605053071,
				0,
				0,
				0.7987552797069875
			],
			"scale": [
				1,
				1,
				1
			]
		},
		{
			"mesh": 0,
			"translation": [
				1.3,
				5.2,
				0
			],
			"rotation": [
				0.9625126824510667,
				0,
				0,
				0.27123667915835425
			],
			"scale": [
				1,
				1,
				1
			]
		},
		{
			"mesh": 0,
			"translation": [
				2.6,
				0,
				0
			],
			"rotation": [
				0.9808388229722508,
				0,
				0,
				0.19482095203137073
			],
			"scale": [
				1,
				1,
				1
			]
		},
		{
			"mesh": 0,
			"translation": [
				2.6,
				1.3,
				0
			],
			"rotation": [
				0.524756761048964,
				0,
				0,
				0.8512522198111442
			],
			"scale": [
				1,
				1,
				1
			]
		},
		{
			"mesh": 0,
			"translation": [
				2.6,
				2.6,
				0
			],
			"rotation": [
				0.696873755301481,
				0,
				0,
				0.7171938156258819
			],
			"scale": [
				1,
				1,
				1
			]
		},
		{
			"mesh": 0,
			"translation": [
				2.6,
				3.9000000000000004,
				0
			],
			"rotation": [
				0.9875167328743008,
				0,
				0,
				0.15751413363018205
			],
			"scale": [
				1,
				1,
				1
			]
		},
		{
			"mesh": 0,
			"translation": [
				2.6,
				5.2,
				0
			],
			"rotation": [
				0.6640369365827837,
				0,
				0,
				0.747699770532098
			],
			"scale": [
				1,
				1,
				1
			]
		},
		{
			"mesh": 0,
			"translation": [
				3.9000000000000004,
				0,
				0
			],
			"rotation": [
				0.9195998665381638,
				0,
				0,
				0.39285631656241865
			],
			"scale": [
				1,
				1,
				1
			]
		},
		{
			"mesh": 0,
			"translation": [
				3.9000000000000004,
				1.3,
				0
			],
			"rotation": [
				0.8364313820293948,
				0,
				0,
				0.5480716587786643
			],
			"scale": [
				1,
				1,
				1
			]
		},
		{
			"mesh": 0,
			"translation": [
				3.9000000000000004,
				2.6,
				0
			],
			"rotation": [
				0.7386255978128644,
				0,
				0,
				0.6741158848859657
			],
			"scale": [
				1,
				1,
				1
			]
		},
		{
			"mesh": 0,
			"translation": [
				3.9000000000000004,
				3.9000000000000004,
				0
			],
			"rotation": [
				0.8538992447046413,
				0,
				0,
				0.5204383535951622
			],
			"scale": [
				1,
				1,
				1
			]
		},
		{
			"mesh": 0,
			"translation": [
				3.9000000000000004,
				5.2,
				0
			],
			"rotation": [
				0.9908904573470129,
				0,
				0,
				0.13467034394634805
			],
			"scale": [
				1,
				1,
				1
			]
		},
		{
			"mesh": 0,
			"translation": [
				5.2,
				0,
				0
			],
			"rotation": [
				0.49541955937607385,
				0,
				0,
				0.8686538206832551
			],
			"scale": [
				1,
				1,
				1
			]
		},
		{
			"mesh": 0,
			"translation": [
				5.2,
				1.3,
				0
			],
			"rotation": [
				0.5941483264879536,
				0,
				0,
				0.8043554973589502
			],
			"scale": [
				1,
				1,
				1
			]
		},
		{
			"mesh": 0,
			"translation": [
				5.2,
				2.6,
				0
			],
			"rotation": [
				0.7413360159081019,
				0,
				0,
				0.6711340488438224
			],
			"scale": [
				1,
				1,
				1
			]
		},
		{
			"mesh": 0,
			"translation": [
				5.2,
				3.9000000000000004,
				0
			],
			"rotation": [
				0.6676308965497362,
				0,
				0,
				0.7444924351342971
			],
			"scale": [
				1,
				1,
				1
			]
		},
		{
			"mesh": 0,
			"translation": [
				5.2,
				5.2,
				0
			],
			"rotation": [
				0.585550939155198,
				0,
				0,
				0.8106356133642696
			],
			"scale": [
				1,
				1,
				1
			]
		}
	],
	"meshes": [
		{
			"primitives": [
				{
					"attributes": {
						"POSITION": 1
					},
					"indices": 0,
					"mode": 5,
					"material": 0
				}
			]
		}
	],
	"buffers": [
		{
			"uri": "buffer.bin",
			"byteLength": 60
		}
	],
	"bufferViews": [
		{
			"buffer": 0,
			"byteOffset": 0,
			"byteLength": 12,
			"target": 34963
		},
		{
			"buffer": 0,
			"byteOffset": 12,
			"byteLength": 48,
			"target": 34962
		}
	],
	"accessors": [
		{
			"bufferView": 0,
			"byteOffset": 0,
			"componentType": 5123,
			"count": 6,
			"type": "SCALAR",
			"min": [
				0
			],
			"max": [
				3
			]
		},
		{
			"bufferView": 1,
			"byteOffset": 0,
			"componentType": 5126,
			"count": 4,
			"type": "VEC3",
			"min": [
				0,
				0,
				0
			],
			"max": [
				1,
				1,
				0
			]
		}
	],
	"materials": [
		{
			"pbrMetallicRoughness": {
				"baseColorFactor": [
					0,
					0,
					0,
					1
				],
				"metallicFactor": 0.2,
				"roughnessFactor": 0.8
			}
		}
	],
	"asset": {
		"version": "2.0"
	}
}
